{"title":"Joker - Kafirana Official HD Full Song Video feat. Akshay Kumar,","uid":7482589,"size":42222001,"categoryP":"video","categoryS":"music_videos","magnet":"?xt=urn:btih:1caace3a94d44d5d4ba8b9e388431cf815405baa&amp;dn=Joker+-+Kafirana+Official+HD+Full+Song+Video+feat.+Akshay+Kumar%2C&amp;tr=udp%3A%2F%2Ftracker.openbittorrent.com%3A80&amp;tr=udp%3A%2F%2Fopen.demonii.com%3A1337&amp;tr=udp%3A%2F%2Ftracker.coppersurfer.tk%3A6969&amp;tr=udp%3A%2F%2Fexodus.desync.com%3A6969","seeders":1,"leechers":0,"uploader":"sameer_ecs","files":5,"time":1343480939,"description":"&quot;Kafirana&quot; is the Official HD Full song of &quot;Joker&quot;\nSong Name: Kafirana\nFeaturing: Akshay Kumar, Sonakshi Sinha, Chitrangda Singh\nSinger: Sunidhi Chauhan, Adarsh Shinde\nComposer: Gaurav Dagaonkar\nLyrics: Shirish Kunder\nDirector: Shirish Kunder\n\nMovie releases on 31st Aug, 2012. The film is an &quot;out of this world&quot; comedy about an NRI (Akshay Kumar) and his beautiful wife (Sonakshi Sinha) who return home to discover that their village has dropped off the map of India. To put it back on the world's radar they must now forge an unlikely alliance of crazy villagers &amp; aliens that will turn their village into the biggest &quot;tamasha&quot; the universe has ever seen!\n\nGeneral\nComplete name                  : Joker - Kafirana Official HD Full Song Video feat. Akshay Kumar, Sonakshi Sinha, Chitrangda Singh {ECS}.mp4\nFormat                         : MPEG-4\nFormat profile                 : Base Media\nCodec ID                       : isom\nFile size                      : 40.0 MiB\nDuration                       : 2mn 35s\nOverall bit rate mode          : Variable\nOverall bit rate               : 2 161 Kbps\nEncoded date                   : UTC 2012-07-28 10:30:22\nTagged date                    : UTC 2012-07-28 10:30:22\n\nVideo\nID                             : 1\nFormat                         : AVC\nFormat/Info                    : Advanced Video Codec\nFormat profile                 : &lt;a class=&quot;__cf_email__&quot; href=&quot;/cdn-cgi/l/email-protection&quot; data-cfemail=&quot;2e664749466e621a001f&quot;&gt;[email&amp;#160;protected]&lt;/a&gt;&lt;script cf-hash='f9e31' type=&quot;text/javascript&quot;&gt;\n/* &lt;![CDATA[ */!function(){try{var t=&quot;currentScript&quot;in document?document.currentScript:function(){for(var t=document.getElementsByTagName(&quot;script&quot;),e=t.length;e--;)if(t[e].getAttribute(&quot;cf-hash&quot;))return t[e]}();if(t&amp;&amp;t.previousSibling){var e,r,n,i,c=t.previousSibling,a=c.getAttribute(&quot;data-cfemail&quot;);if(a){for(e=&quot;&quot;,r=parseInt(a.substr(0,2),16),n=2;a.length-n;n+=2)i=parseInt(a.substr(n,2),16)^r,e+=String.fromCharCode(i);e=document.createTextNode(e),c.parentNode.replaceChild(e,c)}}}catch(u){}}();/* ]]&gt; */&lt;/script&gt;\nFormat settings, CABAC         : Yes\nFormat settings, ReFrames      : 3 frames\nCodec ID                       : avc1\nCodec ID/Info                  : Advanced Video Coding\nDuration                       : 2mn 35s\nBit rate mode                  : Variable\nBit rate                       : 2 029 Kbps\nMaximum bit rate               : 14.0 Mbps\nWidth                          : 1 280 pixels\nHeight                         : 544 pixels\nDisplay aspect ratio           : 2.35:1\nFrame rate mode                : Constant\nFrame rate                     : 25.000 fps\nColor space                    : YUV\nChroma subsampling             : 4:2:0\nBit depth                      : 8 bits\nScan type                      : Progressive\nBits/(Pixel*Frame)             : 0.117\nStream size                    : 37.6 MiB (94%)\nWriting library                : x264 core 125 r2200 999b753\n\nAudio\nID                             : 2\nFormat                         : AC-3\nFormat/Info                    : Audio Coding 3\nMode extension                 : CM (complete main)\nFormat settings, Endianness    : Big\nCodec ID                       : ac-3\nDuration                       : 2mn 35s\nBit rate mode                  : Constant\nBit rate                       : 128 Kbps\nChannel(s)                     : 2 channels\nChannel positions              : Front: L R\nSampling rate                  : 44.1 KHz\nBit depth                      : 16 bits\nCompression mode               : Lossy\nStream size                    : 2.37 MiB (6%)\n\n &lt;a href=&quot;\nhttp://i1271.photobucket.com/albums/jj629/sameer_ecs/Joker-KafiranaOfficialHDFullSongVideofeatAkshayKumarSonakshiSinhaChitrangdaSinghECSmp4_thumbs_20120728_160227.jpg&quot; rel=&quot;nofollow&quot; target=&quot;_NEW&quot;&gt;\nhttp://i1271.photobucket.com/albums/jj629/sameer_ecs/Joker-KafiranaOfficialHDFullSongVideofeatAkshayKumarSonakshiSinhaChitrangdaSinghECSmp4_thumbs_20120728_160227.jpg&lt;/a&gt;","torrent":{"xt":"urn:btih:1caace3a94d44d5d4ba8b9e388431cf815405baa","amp;dn":"Joker+-+Kafirana+Official+HD+Full+Song+Video+feat.+Akshay+Kumar%2C","amp;tr":["udp%3A%2F%2Ftracker.openbittorrent.com%3A80","udp%3A%2F%2Fopen.demonii.com%3A1337","udp%3A%2F%2Ftracker.coppersurfer.tk%3A6969","udp%3A%2F%2Fexodus.desync.com%3A6969"],"infoHash":"1caace3a94d44d5d4ba8b9e388431cf815405baa","infoHashBuffer":{"type":"Buffer","data":[28,170,206,58,148,212,77,93,75,168,185,227,136,67,28,248,21,64,91,170]},"announce":[],"urlList":[]}}